# xmcd
#
# Track frame offsets: 
#        150
#        27373
#        55521
#        74139
#        89694
#        110131
#        133229
#        155081
#        179674
#        198004
#        213990
#
# Disc length: 3166 seconds
#
# Revision: 0
# Processed by: cddbd v1.5.2PL0 Copyright (c) Steve Scherf et al.
# Submitted via: ExactAudioCopyFreeDBPlugin 1.0
#
DISCID=ab0c5c0b
DTITLE=ewa firsowicz - das meer
DYEAR=2009
DGENRE=Elektro Chanson
TTITLE0=die Auflösung beginnt
TTITLE1=da wo ich herkomm
TTITLE2=das gefundene Fressen
TTITLE3=ich bin auf der Suche
TTITLE4=das Einzige
TTITLE5=alles ist Umarmung (Schlaflied)
TTITLE6=das Gelände in dem du dich bewegst
TTITLE7=lasst mich unauffindbar
TTITLE8=stundenlang das Meer
TTITLE9=der Stoff der uns beide umweht
TTITLE10=der vollkommene Tag
EXTD=
EXTT0=
EXTT1=
EXTT2=
EXTT3=
EXTT4=
EXTT5=
EXTT6=
EXTT7=
EXTT8=
EXTT9=
EXTT10=
PLAYORDER=
